<?xml version="1.0" encoding="UTF-8"?>
<svg id="Layer_1" xmlns="http://www.w3.org/2000/svg" version="1.1" viewBox="0 0 103 32">
  <!-- Generator: Adobe Illustrator 29.3.0, SVG Export Plug-In . SVG Version: 2.1.0 Build 146)  -->
  <defs>
    <style>
      .st0 {
        fill: #fff;
      }
    </style>
  </defs>
  <path class="st0" d="M9.8,18.6h4.3v1.3h-6.6l4.4-7.8h-3.7v-1.3h6l-4.4,7.8Z"/>
  <path class="st0" d="M19.7,14.2h1.3v5.7h-1.3v-.6c-.5.5-1.1.8-1.8.8s-1.4-.3-2-.9c-.5-.6-.8-1.3-.8-2.2s.3-1.6.8-2.1,1.2-.9,1.9-.9,1.3.3,1.8.8v-.7ZM16.6,17c0,.5.1,1,.4,1.3.3.3.7.5,1.1.5s.9-.2,1.2-.5c.3-.3.5-.8.5-1.3s-.2-1-.5-1.3c-.3-.3-.7-.5-1.2-.5s-.8.2-1.1.5c-.3.3-.5.8-.5,1.3Z"/>
  <path class="st0" d="M22.7,14.2h1.3v.5c.3-.3.5-.4.7-.5.2,0,.4-.1.7-.1.6,0,1.2.3,1.5.8.4-.6,1-.8,1.7-.8,1.3,0,1.9.8,1.9,2.3v3.5h-1.3v-3.2c0-.5,0-.9-.2-1.2-.1-.2-.4-.3-.7-.3s-.6.1-.8.4-.2.7-.2,1.3v2.9h-1.3v-3.2c0-1-.3-1.5-.9-1.5s-.6.1-.8.4-.3.7-.3,1.3v2.9h-1.3v-5.7Z"/>
  <path class="st0" d="M36.4,14.2h1.3v5.7h-1.3v-.6c-.5.5-1.1.8-1.8.8s-1.4-.3-2-.9c-.5-.6-.8-1.3-.8-2.2s.3-1.6.8-2.1,1.2-.9,1.9-.9,1.3.3,1.8.8v-.7ZM33.3,17c0,.5.1,1,.4,1.3.3.3.7.5,1.1.5s.9-.2,1.2-.5c.3-.3.5-.8.5-1.3s-.2-1-.5-1.3c-.3-.3-.7-.5-1.2-.5s-.8.2-1.1.5c-.3.3-.5.8-.5,1.3Z"/>
  <path class="st0" d="M39.4,14.2h1.3v.5c.5-.5,1-.7,1.6-.7s1.2.2,1.6.6c.3.4.5.9.5,1.7v3.5h-1.3v-3.2c0-.6,0-1-.2-1.2-.2-.2-.4-.3-.8-.3s-.7.1-.9.4c-.2.3-.3.8-.3,1.5v2.8h-1.3v-5.7Z"/>
  <path class="st0" d="M49.6,19.9l1.9-9.7,3.1,7,3.2-7,1.7,9.7h-1.4l-.9-5.5-2.7,5.9-2.6-5.9-1,5.5h-1.4Z"/>
  <path class="st0" d="M65.4,14.2h1.3v5.7h-1.3v-.6c-.5.5-1.1.8-1.8.8s-1.4-.3-2-.9c-.5-.6-.8-1.3-.8-2.2s.3-1.6.8-2.1,1.2-.9,1.9-.9,1.3.3,1.8.8v-.7ZM62.3,17c0,.5.1,1,.4,1.3.3.3.7.5,1.1.5s.9-.2,1.2-.5c.3-.3.5-.8.5-1.3s-.2-1-.5-1.3c-.3-.3-.7-.5-1.2-.5s-.8.2-1.1.5c-.3.3-.5.8-.5,1.3Z"/>
  <path class="st0" d="M69.7,10v6l1.9-1.8h1.8l-2.5,2.4,2.7,3.3h-1.7l-1.9-2.4-.2.2v2.2h-1.3v-9.9h1.3Z"/>
  <path class="st0" d="M74.2,11.8c0-.2,0-.4.3-.6s.4-.3.6-.3.4,0,.6.3c.2.2.3.4.3.6s0,.4-.3.6c-.2.2-.4.3-.6.3s-.4,0-.6-.3-.3-.4-.3-.6ZM75.7,14.2v5.7h-1.3v-5.7h1.3Z"/>
  <path class="st0" d="M77.4,14.2h1.3v.5c.5-.5,1-.7,1.6-.7s1.2.2,1.6.6c.3.4.5.9.5,1.7v3.5h-1.3v-3.2c0-.6,0-1-.2-1.2-.2-.2-.4-.3-.8-.3s-.7.1-.9.4c-.2.3-.3.8-.3,1.5v2.8h-1.3v-5.7Z"/>
  <path class="st0" d="M89.2,17.3h-4.1c0,.5.2.8.5,1.1.3.3.6.4,1,.4s.6,0,.8-.2c.2-.2.5-.4.7-.9l1.1.6c-.2.3-.4.5-.5.8s-.4.4-.6.5-.5.2-.7.3-.5,0-.8,0c-.9,0-1.5-.3-2.1-.8-.5-.6-.8-1.3-.8-2.2s.2-1.6.8-2.2c.5-.6,1.2-.8,2-.8s1.5.3,2,.8c.5.5.7,1.3.7,2.2v.3ZM87.8,16.3c-.2-.7-.6-1.1-1.3-1.1s-.3,0-.5,0-.3.1-.4.2-.2.2-.3.3-.1.3-.2.4h2.6Z"/>
  <path class="st0" d="M93.9,15.1l-1.1.6c-.2-.4-.4-.5-.6-.5s-.2,0-.3.1-.1.2-.1.3c0,.2.3.4.8.7.7.3,1.2.6,1.4.8s.4.6.4,1-.2,1-.6,1.4c-.4.4-.9.5-1.4.5-1,0-1.6-.5-2-1.4l1.1-.5c.2.3.3.4.4.5.2.1.4.2.6.2.4,0,.7-.2.7-.6s-.2-.5-.5-.7c-.1,0-.3-.1-.4-.2s-.3-.1-.4-.2c-.4-.2-.7-.4-.8-.6-.2-.2-.3-.5-.3-.9s.2-.9.5-1.2c.3-.3.8-.5,1.3-.5.7,0,1.3.4,1.6,1.1Z"/>
  <path class="st0" d="M95.3,11.8c0-.2,0-.4.3-.6s.4-.3.6-.3.4,0,.6.3c.2.2.3.4.3.6s0,.4-.3.6c-.2.2-.4.3-.6.3s-.4,0-.6-.3-.3-.4-.3-.6ZM96.8,14.2v5.7h-1.3v-5.7h1.3Z"/>
</svg>